<?xml version="1.0" encoding="utf-8"?>
<!-- Generator: Adobe Illustrator 26.5.0, SVG Export Plug-In . SVG Version: 6.00 Build 0)  -->
<svg version="1.1" id="Layer_1" xmlns="http://www.w3.org/2000/svg" xmlns:xlink="http://www.w3.org/1999/xlink" x="0px" y="0px"
	 viewBox="0 0 2000 2000" style="enable-background:new 0 0 2000 2000;" xml:space="preserve">
<style type="text/css">
	.st0{fill:#2D2D2D;}
</style>
<g>
	<path class="st0" d="M1048.94,232.75c88.74,18.3,159.39,65.67,209.97,140.8c38.38,57,50.44,109.64,50.69,110.72
		c3.14,14.4,15.88,24.25,30.06,24.25c2.15,0,4.33-0.23,6.52-0.7c16.62-3.58,27.2-19.96,23.62-36.59
		c-0.55-2.55-13.94-63.1-58.32-129.9c-59.11-88.96-145.59-147.37-250.09-168.91c-16.65-3.43-32.94,7.28-36.38,23.94
		C1021.57,213.03,1032.29,229.32,1048.94,232.75z"/>
	<path class="st0" d="M1679.45,1282.19c-138.1-138.1-311.09-228.61-499.07-263.45c199.48-72.2,342.42-263.51,342.42-487.6
		c0-285.83-232.54-518.37-518.37-518.37S486.07,245.31,486.07,531.14c0,224.09,142.94,415.4,342.41,487.6
		c-187.98,34.84-360.96,125.35-499.06,263.45c-180.3,180.3-279.6,420.03-279.6,675.02c0,17.01,13.79,30.79,30.79,30.79
		c17.01,0,30.79-13.79,30.79-30.79c0-238.54,92.89-462.8,261.56-631.47c168.67-168.67,392.93-261.56,631.47-261.56
		s462.79,92.89,631.47,261.56c168.67,168.67,261.56,392.93,261.56,631.47c0,17.01,13.79,30.79,30.79,30.79
		c17.01,0,30.79-13.79,30.79-30.79C1959.05,1702.22,1859.75,1462.49,1679.45,1282.19z M547.66,531.14
		c0-251.87,204.91-456.78,456.78-456.78c251.87,0,456.78,204.91,456.78,456.78c0,251.87-204.91,456.78-456.78,456.78
		C752.57,987.92,547.66,783.01,547.66,531.14z"/>
</g>
</svg>
